<?xml version="1.0" standalone="no"?>
<!DOCTYPE svg PUBLIC "-//W3C//DTD SVG 20010904//EN"
 "http://www.w3.org/TR/2001/REC-SVG-20010904/DTD/svg10.dtd">
<svg version="1.0" xmlns="http://www.w3.org/2000/svg"
 width="260.000000pt" height="260.000000pt" viewBox="0 0 260.000000 260.000000"
 preserveAspectRatio="xMidYMid meet">
<metadata>
Created by potrace 1.11, written by Peter Selinger 2001-2013
</metadata>
<g transform="translate(0.000000,260.000000) scale(0.100000,-0.100000)"
fill="#000000" stroke="none">
<path d="M1017 2043 c-1 0 -123 -4 -272 -7 -148 -4 -286 -8 -305 -10 -19 -3
-62 -7 -95 -11 -202 -21 -289 -95 -329 -281 -19 -90 -16 -772 4 -874 41 -212
147 -275 490 -295 208 -12 1002 -5 1170 10 138 12 262 51 309 95 30 30 67 110
83 180 14 65 14 66 30 53 7 -6 33 -22 58 -35 25 -14 117 -67 204 -117 132 -76
164 -91 188 -86 15 4 33 15 38 25 6 12 10 240 10 614 0 592 0 596 -21 617 -15
15 -29 19 -48 16 -14 -3 -120 -60 -235 -127 -115 -66 -210 -119 -211 -118 -1
2 -7 29 -13 62 -33 166 -122 239 -317 261 -146 17 -727 39 -738 28z m-109
-372 c9 -6 71 -41 137 -79 66 -38 138 -80 160 -92 189 -104 266 -155 272 -179
15 -56 9 -62 -147 -149 -25 -14 -70 -41 -100 -60 -30 -19 -57 -35 -60 -35 -3
1 -41 -20 -85 -46 -137 -81 -193 -111 -210 -111 -9 0 -27 11 -40 25 l-25 24 0
331 0 331 25 24 c26 27 45 31 73 16z"/>
</g>
</svg>
