<svg xmlns="http://www.w3.org/2000/svg" viewBox="0 0 138.65 14.32"><defs><style>.cls-1{fill:#434142;}.cls-2{fill:#dcaf4c;}</style></defs><title>Asset 31</title><g id="Layer_2" data-name="Layer 2"><g id="Layer_1-2" data-name="Layer 1"><path class="cls-1" d="M127.36,13.39a1,1,0,0,1-.7.26,1,1,0,0,1-.7-.25.88.88,0,0,1,0-1.25,1,1,0,0,1,.69-.26,1,1,0,0,1,.69.24.8.8,0,0,1,.27.62A.86.86,0,0,1,127.36,13.39Z"/><path class="cls-1" d="M130.71,13.55a2.67,2.67,0,0,1-2.22-.88,3.64,3.64,0,0,1-.71-2.34,3.78,3.78,0,0,1,.75-2.41,2.92,2.92,0,0,1,3.36-.7,1.88,1.88,0,0,1,.77.7,3.86,3.86,0,0,1,.51,2,1.57,1.57,0,0,1,0,.58.27.27,0,0,1-.19.05h-3.74a2.57,2.57,0,0,0,.45,1.42,1.59,1.59,0,0,0,1.34.5,3.5,3.5,0,0,0,1.44-.33.16.16,0,0,1,.25.1l.24.58c0,.1,0,.19-.11.25A4.34,4.34,0,0,1,130.71,13.55Zm-1.52-3.93h2.64q0-1.59-1.25-1.59a1.17,1.17,0,0,0-1.06.48A2.14,2.14,0,0,0,129.19,9.63Z"/><path class="cls-1" d="M134.78,7.52A2.42,2.42,0,0,1,136.41,7a5.72,5.72,0,0,1,1.72.23.22.22,0,0,1,.18.23V8.75a.17.17,0,0,1-.19.19h-.74c-.14,0-.19-.06-.17-.19l.06-.65a1.75,1.75,0,0,0-.84-.2q-1,0-1,.71a.67.67,0,0,0,.33.58,2.89,2.89,0,0,0,.8.35q.47.13.95.3a1.8,1.8,0,0,1,.81.58,1.63,1.63,0,0,1,.33,1A1.82,1.82,0,0,1,138,13a3,3,0,0,1-1.89.54,6.87,6.87,0,0,1-1.79-.25.23.23,0,0,1-.17-.24V11.7a.17.17,0,0,1,.19-.19h.74a.16.16,0,0,1,.18.19l0,.66a1.62,1.62,0,0,0,1,.25q1.13,0,1.13-.8a.75.75,0,0,0-.33-.64,2.43,2.43,0,0,0-.79-.36q-.47-.13-.94-.28a1.71,1.71,0,0,1-.8-.56,1.61,1.61,0,0,1-.33-1A1.77,1.77,0,0,1,134.78,7.52Z"/><path class="cls-1" d="M29.49,12.42V9.25h2.85v.25a2.1,2.1,0,0,0,.37,1.36,1.38,1.38,0,0,0,1.12.43A1.26,1.26,0,0,0,35.14,10a1.32,1.32,0,0,0-.39-1,3.88,3.88,0,0,0-1.36-.75L32.76,8a8.15,8.15,0,0,1-2.11-1,3.14,3.14,0,0,1-.94-1.12,3.42,3.42,0,0,1-.3-1.49,3.36,3.36,0,0,1,1.15-2.7,4.65,4.65,0,0,1,3.12-1,6.68,6.68,0,0,1,4.15,1.37V5H35V4.83a1.91,1.91,0,0,0-.35-1.24,1.24,1.24,0,0,0-1-.42,1.48,1.48,0,0,0-1,.32,1.07,1.07,0,0,0-.37.85,1,1,0,0,0,.42.84A7.57,7.57,0,0,0,34.65,6a6.19,6.19,0,0,1,2.7,1.51,3.53,3.53,0,0,1,.72,2.35,3.78,3.78,0,0,1-1.15,2.89,4.36,4.36,0,0,1-3.11,1.09,7.25,7.25,0,0,1-2.35-.37A6.39,6.39,0,0,1,29.49,12.42Z"/><path class="cls-1" d="M43.27,10.15a2.37,2.37,0,0,0,.14,1,.74.74,0,0,0,.5.3V13.6H39.7V11.47a.75.75,0,0,0,.51-.31,2.3,2.3,0,0,0,.14-1V4.29a2.3,2.3,0,0,0-.14-1A.75.75,0,0,0,39.68,3v-2h5a4.41,4.41,0,0,1,3.17.93,4.29,4.29,0,0,1,1,3.14q0,2.7-.89,3.69a4.25,4.25,0,0,1-3.22,1H43.27Zm0-3.21h1.1a1.71,1.71,0,0,0,1.25-.34,1.93,1.93,0,0,0,.31-1.27A2.06,2.06,0,0,0,45.6,4a1.61,1.61,0,0,0-1.23-.36H43.26Z"/><path class="cls-1" d="M50.19,5.17A10.6,10.6,0,0,1,50.34,3a2.84,2.84,0,0,1,.52-1.11A2.92,2.92,0,0,1,52.23,1a6.92,6.92,0,0,1,2.22-.3,6.83,6.83,0,0,1,2.19.29A3,3,0,0,1,58,1.87,2.85,2.85,0,0,1,58.53,3a10.67,10.67,0,0,1,.16,2.16V9.3a10.66,10.66,0,0,1-.15,2.17A2.85,2.85,0,0,1,58,12.59a3,3,0,0,1-1.37.94,6.75,6.75,0,0,1-2.19.3,6.93,6.93,0,0,1-2.22-.29,2.89,2.89,0,0,1-1.37-.93,2.84,2.84,0,0,1-.52-1.1,10.59,10.59,0,0,1-.16-2.19Zm2.91-.11V9.41a2.48,2.48,0,0,0,.32,1.43,1.19,1.19,0,0,0,1,.43,1.17,1.17,0,0,0,1-.43,2.51,2.51,0,0,0,.31-1.44V5.06a2.49,2.49,0,0,0-.31-1.43,1.17,1.17,0,0,0-1-.43,1.19,1.19,0,0,0-1,.44A2.47,2.47,0,0,0,53.11,5.07Z"/><path class="cls-1" d="M64,10.1a2.37,2.37,0,0,0,.14,1,.74.74,0,0,0,.5.3v2.13H60.47V11.43a.75.75,0,0,0,.51-.31,2.3,2.3,0,0,0,.14-1V4.25a2.3,2.3,0,0,0-.14-1,.75.75,0,0,0-.51-.31v-2h5a4.77,4.77,0,0,1,3.19.87,3.52,3.52,0,0,1,1,2.78,3.45,3.45,0,0,1-.49,1.92,2.4,2.4,0,0,1-1.43,1A2.24,2.24,0,0,1,69,8.09a2.11,2.11,0,0,1,.36,1.35v.68a2.56,2.56,0,0,0,.12,1,.58.58,0,0,0,.43.32v2.13H66.73a2.66,2.66,0,0,1-.2-.66,8.05,8.05,0,0,1-.06-1.19V10.07a1.82,1.82,0,0,0-.32-1.25,1.72,1.72,0,0,0-1.2-.31H64Zm0-3.83h1.15a1.65,1.65,0,0,0,1.18-.36,1.51,1.51,0,0,0,.37-1.13,1.59,1.59,0,0,0-.37-1.16,1.55,1.55,0,0,0-1.15-.37H64Z"/><path class="cls-1" d="M74.34,3.26a1.11,1.11,0,0,0-.89.36,1.75,1.75,0,0,0-.27,1.1V6H70.83V.86l10,0V6H78.46V4.7a1.74,1.74,0,0,0-.28-1.1,1.15,1.15,0,0,0-.9-.35v6.82a2.37,2.37,0,0,0,.14,1,.74.74,0,0,0,.5.3v2.13H73.71V11.4a.75.75,0,0,0,.51-.31,2.32,2.32,0,0,0,.13-1Z"/><path class="cls-1" d="M88.33,5.61v-.4A2.44,2.44,0,0,0,88,3.7a1.39,1.39,0,0,0-1.16-.48,1.35,1.35,0,0,0-1.17.51,2.85,2.85,0,0,0-.36,1.64V9.09a2.82,2.82,0,0,0,.36,1.63,1.36,1.36,0,0,0,1.18.49A1.38,1.38,0,0,0,88,10.73a2.82,2.82,0,0,0,.36-1.64V8.33h3.32v4.12a8.33,8.33,0,0,1-2.27,1,9.41,9.41,0,0,1-2.59.37,5.9,5.9,0,0,1-3.93-1.06A4.38,4.38,0,0,1,81.66,9.3V5.2a4.48,4.48,0,0,1,1.2-3.46A5.42,5.42,0,0,1,86.6.62,9.68,9.68,0,0,1,89.16,1a10.86,10.86,0,0,1,2.48,1V5.6Z"/><path class="cls-1" d="M100.63,12.25a5.84,5.84,0,0,1-1.77,1.15,5.16,5.16,0,0,1-2,.4,3.13,3.13,0,0,1-2.4-.94,3.63,3.63,0,0,1-.89-2.58,3.34,3.34,0,0,1,1.26-2.72,19.32,19.32,0,0,1,5.62-2.41V4.43a1.59,1.59,0,0,0-.31-1.08,1.25,1.25,0,0,0-1-.34,1.24,1.24,0,0,0-1,.37,1.65,1.65,0,0,0-.32,1.11v.4H94.31V1.94a13,13,0,0,1,2.56-1A9.71,9.71,0,0,1,99.38.6a5.2,5.2,0,0,1,3.58,1,4.31,4.31,0,0,1,1.1,3.29V9.14a3.61,3.61,0,0,0,.18,1.42.88.88,0,0,0,.67.43v2.59h-4.28Zm-.15-4.67A10.67,10.67,0,0,0,98,8.84,1.46,1.46,0,0,0,97.41,10a1,1,0,0,0,.28.75,1,1,0,0,0,.75.28,2,2,0,0,0,1-.33,4.49,4.49,0,0,0,1-.92Z"/><path class="cls-1" d="M117.06,2a6.41,6.41,0,0,1,1.77-1,5.72,5.72,0,0,1,1.88-.32,3.39,3.39,0,0,1,2.77,1,5.48,5.48,0,0,1,.86,3.45v4a3.39,3.39,0,0,0,.19,1.37.75.75,0,0,0,.66.38v2.59h-4a4.8,4.8,0,0,1-.28-1.23q-.08-.73-.09-2.63v-4a3.35,3.35,0,0,0-.37-1.83,1.37,1.37,0,0,0-1.22-.53,2,2,0,0,0-.73.15,3.85,3.85,0,0,0-.81.46V9.2a3.44,3.44,0,0,0,.18,1.37.76.76,0,0,0,.66.39v2.59h-4a5.19,5.19,0,0,1-.29-1.32q-.09-.79-.09-2.54v-4a3.39,3.39,0,0,0-.37-1.82,1.37,1.37,0,0,0-1.22-.53,2,2,0,0,0-.74.15,3.07,3.07,0,0,0-.76.46V9.24a3.28,3.28,0,0,0,.17,1.31.9.9,0,0,0,.61.42v2.59h-5.08V11a.77.77,0,0,0,.61-.44,4.3,4.3,0,0,0,.16-1.5V4.86a2.25,2.25,0,0,0-.17-1.06,1.2,1.2,0,0,0-.61-.43V.82h4.3V1.6A7.18,7.18,0,0,1,112.51,1a4.69,4.69,0,0,1,1.37-.22,4.94,4.94,0,0,1,1.85.3A3.36,3.36,0,0,1,117.06,2Z"/><path class="cls-2" d="M25.1,1.61a.6.6,0,0,0-.9-.52L20.11,3.44a4.21,4.21,0,0,0-.79-2.22A3.28,3.28,0,0,0,17,.28C15.94.16,14.87.09,13.8,0,11.62,0,9.45,0,7.27.06,6.16.08,5,.11,3.92.2,2.56.31,1.15.51.51,1.87A10.08,10.08,0,0,0,0,6C0,7.16,0,8.35,0,9.53c.06,1.53.15,3.53,1.81,4.21a9.54,9.54,0,0,0,2.9.5c1,.07,2,.06,3,.07,2.1,0,4.21,0,6.31-.08a14.28,14.28,0,0,0,4.36-.52c1.2-.41,1.52-1.71,1.68-2.84l4,2.33a.61.61,0,0,0,1-.49ZM14,7.74l-5.19,3a.67.67,0,0,1-1-.58v-6a.67.67,0,0,1,1-.58l5.19,3A.67.67,0,0,1,14,7.74Z"/></g></g></svg>